<svg width="96" height="30" viewBox="0 0 96 30" fill="none" xmlns="http://www.w3.org/2000/svg">
<path fill-rule="evenodd" clip-rule="evenodd" d="M27.4149 21.3125L27.4149 21.3125C27.8447 22.4078 27.9403 23.4554 27.797 24.503C27.4627 26.6935 26.0298 28.5982 23.9283 29.4554C23.1641 29.7887 22.3522 29.9316 21.4925 29.9316C21.2537 29.9316 20.9671 29.9316 20.7283 29.884C19.7253 29.7887 18.7224 29.4554 17.7194 28.884C16.5253 28.2173 15.3313 27.2173 13.994 25.7887C12.6567 27.2173 11.5104 28.2173 10.2686 28.884C9.26564 29.4554 8.26265 29.7411 7.25967 29.884C7.14026 29.884 7.00892 29.8959 6.87758 29.9078C6.74623 29.9197 6.61489 29.9316 6.49549 29.9316C5.63578 29.9316 4.82384 29.7887 4.05966 29.4554C2.00593 28.5982 0.477575 26.7411 0.143247 24.503C-3.65078e-05 23.4078 0.143247 22.3602 0.525337 21.3125C0.668617 20.884 0.811898 20.5506 0.955178 20.2173L0.955187 20.2173C1.19399 19.6935 1.4328 19.1697 1.62384 18.6935L1.67161 18.6459C3.7731 14.1697 5.97011 9.64587 8.26265 5.16968L8.35817 4.9792C8.59698 4.55063 8.83578 4.07444 9.07459 3.59825C9.13887 3.49754 9.20315 3.39507 9.26811 3.29152L9.26824 3.29131C9.5411 2.85633 9.82595 2.40223 10.1731 1.9792C11.1761 0.836344 12.5134 0.169678 13.994 0.169678C15.4268 0.169678 16.8119 0.836344 17.7671 2.02682C18.2447 2.55063 18.5791 3.12206 18.8656 3.64587C19.1044 4.12206 19.3432 4.59825 19.5821 5.02682L19.6776 5.2173C22.0179 9.69349 24.2149 14.2173 26.2686 18.6935H26.3164C26.5074 19.1696 26.7462 19.6934 26.985 20.2172L26.985 20.2173C27.1283 20.5506 27.2716 20.9315 27.4148 21.3124L27.4148 21.3124L27.4149 21.3125ZM50.4835 7.64587C50.4835 8.74111 49.6238 9.59825 48.5253 9.59825C47.4268 9.59825 46.5671 8.74111 46.5671 7.64587C46.5671 6.55063 47.4268 5.69349 48.5253 5.69349C49.6716 5.74111 50.4835 6.59825 50.4835 7.64587ZM42.5074 11.5506V12.0268C42.5074 12.0268 41.6 10.8363 39.594 10.8363C36.3462 10.8363 33.8149 13.3125 33.8149 16.7411C33.8149 20.1221 36.3462 22.6459 39.594 22.6459C41.6 22.6459 42.5074 21.4078 42.5074 21.4078V21.9316C42.5074 22.1697 42.6985 22.3602 42.9373 22.3602H45.3731V11.1221H42.9373C42.6507 11.1221 42.5074 11.3125 42.5074 11.5506ZM40.0716 19.9316C41.1701 19.9316 42.0776 19.3602 42.5074 18.6935V14.6935C42.0776 14.0744 41.1224 13.4554 40.0716 13.4554C38.1612 13.4554 36.6806 14.6459 36.6806 16.6935C36.6806 18.7411 38.1612 19.9316 40.0716 19.9316ZM49.9582 11.1221V22.3125H47.0925V11.1221H49.9582ZM87.0209 12.0268C87.0209 12.0268 87.9761 10.8363 89.9343 10.8363C93.1821 10.8363 95.7134 13.3125 95.7134 16.6935C95.7134 20.0744 93.1821 22.5982 89.9343 22.5982C87.9283 22.5982 87.0209 21.3602 87.0209 21.3602V21.884C87.0209 22.1221 86.8298 22.3125 86.591 22.3125H84.1552V5.74111H87.0209V12.0268ZM89.4567 19.884C88.3582 19.884 87.4985 19.3125 87.0209 18.6459V14.6459C87.4507 14.0268 88.4059 13.4078 89.4567 13.4078C91.3671 13.4078 92.8477 14.5982 92.8477 16.6459C92.8477 18.6935 91.3671 19.884 89.4567 19.884ZM82.6746 22.3602V15.6935C82.6746 13.7887 82.2925 12.7411 81.3373 11.9316C80.4776 11.2173 79.4268 10.8363 78.185 10.8363C77.0865 10.8363 75.988 11.1697 75.1283 12.0268V11.5506C75.1283 11.3125 74.9373 11.1221 74.6985 11.1221H72.4059V22.3602H75.2716V14.5506C75.8447 13.884 76.7522 13.4554 77.6119 13.4554C79.188 13.4554 79.8089 14.1697 79.8089 16.0268V22.3602H82.6746ZM65.4328 10.8363C63.4746 10.8363 62.5194 12.0268 62.5194 12.0268V5.74111H59.6537V22.3125H62.0895C62.3283 22.3125 62.5194 22.1221 62.5194 21.884V21.3602C62.5194 21.3602 63.4268 22.5982 65.4328 22.5982C68.6806 22.5982 71.2119 20.0744 71.2119 16.6935C71.2597 13.3125 68.7283 10.8363 65.4328 10.8363ZM62.5194 18.6459C62.997 19.3125 63.8567 19.884 64.9552 19.884C66.8656 19.884 68.3462 18.6935 68.3462 16.6459C68.3462 14.5982 66.8656 13.4078 64.9552 13.4078C63.9044 13.4078 62.9492 14.0268 62.5194 14.6459V18.6459ZM57.2179 10.8363C58.0776 10.8363 58.5552 10.9792 58.5552 10.9792V13.6459C58.5552 13.6459 56.1671 12.8363 54.6865 14.5506V22.3602H51.8209V11.1221H54.2567C54.4955 11.1221 54.6865 11.3125 54.6865 11.5506V12.0268C55.1641 11.4078 56.3104 10.8363 57.2179 10.8363ZM13.9462 22.8363C12.3224 20.7887 11.2716 18.884 10.9373 17.3125C10.794 16.6459 10.7462 16.0268 10.8418 15.503C10.8895 15.0268 11.0806 14.5982 11.3194 14.2649C11.8925 13.4554 12.8477 12.9316 13.9462 12.9316C15.0447 12.9316 16.0477 13.4078 16.5731 14.2649C16.8119 14.6459 17.0029 15.0268 17.0507 15.503C17.1462 16.0268 17.0985 16.6459 16.9552 17.3125C16.6209 18.884 15.5701 20.7887 13.9462 22.8363ZM23.1641 27.7411C24.6447 27.1697 25.6955 25.8363 25.8865 24.2649C25.9821 23.4554 25.8865 22.7411 25.7432 21.9792C25.6915 21.8245 25.6258 21.6698 25.5537 21.5C25.4926 21.3562 25.4269 21.2015 25.3612 21.0268C25.2418 20.7887 25.1343 20.5387 25.0268 20.2887C24.9194 20.0387 24.8119 19.7887 24.6925 19.5506V19.503C22.6388 15.0744 20.4418 10.5506 18.1492 6.12206L18.0537 5.93158C17.8149 5.45539 17.5761 4.9792 17.3373 4.55063C17.0985 4.07444 16.8119 3.59825 16.4776 3.2173C15.8567 2.50301 14.997 2.12206 14.0895 2.12206C13.1821 2.12206 12.3224 2.50301 11.7015 3.2173C11.3671 3.64587 11.0806 4.07444 10.8418 4.55063C10.6029 5.02682 10.3641 5.50301 10.1253 5.93158L10.0298 6.12206C7.68952 10.5506 5.4925 15.0744 3.43877 19.503L3.39101 19.5506C3.1522 20.0268 2.9134 20.5506 2.72235 21.0268L2.72234 21.0268C2.57906 21.3602 2.43578 21.6935 2.34026 21.9792C2.00593 22.8363 1.95817 23.5506 2.05369 24.3125C2.24474 25.8363 3.29549 27.1697 4.77608 27.7887C5.44474 28.0268 6.20892 28.1697 7.02086 28.0744C7.78504 27.9792 8.54922 27.7411 9.3134 27.3125C10.3641 26.6935 11.4627 25.7887 12.7044 24.4078C10.7462 21.9792 9.50444 19.7411 9.07459 17.7887C8.83578 16.884 8.78802 16.0268 8.93131 15.2649C9.07459 14.503 9.3134 13.8363 9.74325 13.2173C10.6507 11.9316 12.2268 11.1221 13.9462 11.1221C15.6656 11.1221 17.2418 11.884 18.1492 13.2173C18.5791 13.8363 18.8179 14.503 18.9612 15.2649C19.0567 16.0268 19.0089 16.884 18.8179 17.7887C18.3403 19.7411 17.1462 21.9316 15.188 24.3602C16.4298 25.7411 17.4806 26.6459 18.5791 27.2649C19.391 27.6935 20.1074 27.9316 20.8716 28.0268C21.6835 28.1221 22.4477 28.0268 23.1641 27.7411Z" fill="#6A6A6A"/>
</svg>
