<svg width="96" height="25" viewBox="0 0 96 25" fill="none" xmlns="http://www.w3.org/2000/svg">
<path fill-rule="evenodd" clip-rule="evenodd" d="M14.016 1.91409C14.016 2.90465 13.152 3.75371 12.144 3.75371C11.136 3.75371 10.272 2.90465 10.272 1.91409C10.272 0.923519 11.136 0.0744629 12.144 0.0744629C13.152 0.0744629 14.016 0.923519 14.016 1.91409ZM12.144 5.26314C11.04 5.26314 10.176 6.1122 10.176 7.1971C10.176 8.28201 11.04 9.13107 12.144 9.13107C13.248 9.13107 14.112 8.28201 14.112 7.1971C14.112 6.06503 13.248 5.26314 12.144 5.26314ZM10.128 12.3858C10.128 11.3009 11.04 10.4047 12.144 10.4047C13.248 10.4047 14.208 11.3009 14.16 12.3858C14.16 13.4707 13.248 14.3669 12.144 14.3669C11.04 14.3669 10.128 13.4707 10.128 12.3858ZM12.144 15.6405C11.04 15.6405 10.176 16.4896 10.176 17.5745C10.176 18.6594 11.04 19.5084 12.144 19.5084C13.248 19.5084 14.112 18.6594 14.112 17.5745C14.112 16.5367 13.248 15.6405 12.144 15.6405ZM10.272 22.8103C10.272 21.8197 11.136 20.9707 12.144 20.9707C13.2 20.9707 14.016 21.8197 14.016 22.8103C14.016 23.8009 13.152 24.6499 12.144 24.6499C11.136 24.6499 10.272 23.8009 10.272 22.8103ZM17.328 5.02729C16.128 5.02729 15.12 6.01786 15.12 7.1971C15.12 8.37635 16.128 9.36692 17.328 9.36692C18.528 9.36692 19.536 8.37635 19.536 7.1971C19.536 6.01786 18.528 5.02729 17.328 5.02729ZM15.024 12.433C15.024 11.1594 16.08 10.1688 17.328 10.1688C18.576 10.1688 19.632 11.1594 19.632 12.433C19.632 13.7065 18.576 14.6971 17.328 14.6971C16.032 14.6971 15.024 13.6594 15.024 12.433ZM17.328 15.4047C16.128 15.4047 15.12 16.3952 15.12 17.5745C15.12 18.7537 16.128 19.7443 17.328 19.7443C18.528 19.7443 19.536 18.7537 19.536 17.5745C19.536 16.3952 18.528 15.4047 17.328 15.4047ZM20.112 12.3858C20.112 10.9707 21.312 9.88578 22.656 9.88578C24 9.88578 25.104 10.9707 25.2 12.3858C25.2 13.8009 24.096 14.8858 22.656 14.8858C21.216 14.8858 20.112 13.7065 20.112 12.3858ZM6.91204 5.49899C6.00004 5.49899 5.23204 6.25371 5.23204 7.14993C5.23204 8.04616 6.00004 8.80088 6.91204 8.80088C7.82404 8.80088 8.59204 8.04616 8.59204 7.14993C8.59204 6.25371 7.87204 5.49899 6.91204 5.49899ZM5.13604 12.3858C5.13604 11.3952 5.90404 10.6405 6.91204 10.6405C7.92004 10.6405 8.68804 11.3952 8.68804 12.3858C8.68804 13.3764 7.92004 14.1311 6.91204 14.1311C5.90404 14.1311 5.13604 13.3764 5.13604 12.3858ZM6.91204 15.8763C6.00004 15.8763 5.23204 16.6311 5.23204 17.5273C5.23204 18.4235 6.00004 19.1782 6.91204 19.1782C7.82404 19.1782 8.59204 18.4235 8.59204 17.5273C8.59204 16.6311 7.87204 15.8763 6.91204 15.8763ZM0.144043 12.433C0.144043 11.5839 0.816043 10.9235 1.68004 10.9235C2.54404 10.9235 3.21604 11.5839 3.21604 12.433C3.21604 13.282 2.54404 13.9424 1.68004 13.9424C0.816043 13.9424 0.144043 13.282 0.144043 12.433Z" fill="#6A6A6A"/>
<path d="M44.304 9.17822C44.112 9.17822 43.968 9.3669 43.968 9.50841V22.5744C43.968 22.7631 44.16 22.9046 44.304 22.9046H45.888C46.08 22.9046 46.224 22.716 46.224 22.5744V9.50841C46.224 9.31973 46.032 9.17822 45.888 9.17822H44.304Z" fill="#6A6A6A"/>
<path d="M45.168 3.65918C44.304 3.65918 43.632 4.31956 43.632 5.16861C43.632 6.01767 44.304 6.67805 45.168 6.67805C46.032 6.67805 46.704 6.01767 46.704 5.16861C46.704 4.31956 45.984 3.65918 45.168 3.65918Z" fill="#6A6A6A"/>
<path d="M78.384 9.17822C78.192 9.17822 78.048 9.3669 78.048 9.50841V22.5744C78.048 22.7631 78.24 22.9046 78.384 22.9046H79.968C80.16 22.9046 80.304 22.716 80.304 22.5744V9.50841C80.304 9.31973 80.112 9.17822 79.968 9.17822H78.384Z" fill="#6A6A6A"/>
<path d="M79.152 3.65918C78.288 3.65918 77.616 4.31956 77.616 5.16861C77.616 6.01767 78.288 6.67805 79.152 6.67805C80.016 6.67805 80.688 6.01767 80.688 5.16861C80.688 4.31956 80.016 3.65918 79.152 3.65918Z" fill="#6A6A6A"/>
<path fill-rule="evenodd" clip-rule="evenodd" d="M95.3591 21.4739C95.3491 21.5198 95.3249 21.5754 95.266 21.6309C95.266 21.7253 95.166 21.8196 94.966 21.7724L95.0426 21.8607C95.0327 21.8645 95.0237 21.8668 95.016 21.8668H94.866L95.216 22.2913H95.416L95.0426 21.8607C95.0593 21.8543 95.0788 21.8435 95.1003 21.8316C95.1489 21.8048 95.2074 21.7724 95.266 21.7724C95.366 21.7724 95.366 21.6781 95.366 21.5838C95.366 21.545 95.366 21.5062 95.3591 21.4739ZM94.666 21.8668V21.7253V21.3007H95.016C95.116 21.3007 95.216 21.3007 95.266 21.3951C95.3249 21.3951 95.3491 21.4278 95.3591 21.4739C95.366 21.4419 95.366 21.4145 95.366 21.3951V21.3007C95.366 21.3007 95.366 21.2064 95.266 21.2064C95.266 21.2064 95.166 21.1121 95.066 21.1121H94.866H94.416V22.2913H94.616V21.8668H94.666Z" fill="#6A6A6A"/>
<path fill-rule="evenodd" clip-rule="evenodd" d="M93.792 21.7253C93.792 21.1592 94.32 20.6404 94.896 20.6404C95.52 20.6404 96 21.1121 96 21.7253C96 22.2913 95.472 22.8102 94.896 22.8102C94.32 22.8102 93.792 22.2913 93.792 21.7253ZM93.888 21.7253C93.888 22.2913 94.32 22.7159 94.896 22.7159C95.424 22.7159 95.904 22.2913 95.904 21.7253C95.904 21.1592 95.472 20.7347 94.896 20.7347C94.32 20.7347 93.888 21.1592 93.888 21.7253Z" fill="#6A6A6A"/>
<path d="M57.504 11.3008C57.696 11.3008 57.84 11.1122 57.84 10.9706V9.41404C57.84 9.22536 57.648 9.08385 57.504 9.08385H54.096V4.08385C54.096 3.89517 53.904 3.75366 53.76 3.75366H52.176C51.984 3.75366 51.84 3.94234 51.84 4.08385V9.08385H50.16C49.968 9.08385 49.824 9.27253 49.824 9.41404V10.9706C49.824 11.1593 50.016 11.3008 50.16 11.3008H51.84V18.848C51.84 21.1593 53.424 22.6688 55.728 22.6688H57.408C57.6 22.6688 57.744 22.4801 57.744 22.3386V20.782C57.744 20.5933 57.552 20.4518 57.408 20.4518H55.968C54.864 20.4518 54.096 19.6971 54.096 18.5178V11.2537H57.504V11.3008Z" fill="#6A6A6A"/>
<path d="M91.2 11.3008C91.392 11.3008 91.536 11.1122 91.536 10.9706V9.41404C91.536 9.22536 91.344 9.08385 91.2 9.08385H87.792V4.08385C87.792 3.89517 87.6 3.75366 87.456 3.75366H85.872C85.68 3.75366 85.536 3.94234 85.536 4.08385V9.08385H83.856C83.664 9.08385 83.52 9.27253 83.52 9.41404V10.9706C83.52 11.1593 83.712 11.3008 83.856 11.3008H85.536V18.848C85.536 21.1593 87.12 22.6688 89.424 22.6688H91.104C91.296 22.6688 91.44 22.4801 91.44 22.3386V20.782C91.44 20.5933 91.248 20.4518 91.104 20.4518H89.568C88.464 20.4518 87.696 19.6971 87.696 18.5178V11.2537H91.152L91.2 11.3008Z" fill="#6A6A6A"/>
<path d="M34.224 11.3008V22.4329C34.224 22.6216 34.416 22.7631 34.56 22.7631H36.144C36.336 22.7631 36.48 22.5744 36.48 22.4329V11.3008H40.224C40.416 11.3008 40.56 11.1121 40.56 10.9706V9.41401C40.56 9.22533 40.368 9.08382 40.224 9.08382H36.48V6.1593C36.48 4.98005 37.344 4.17816 38.352 4.17816H40.224C40.416 4.17816 40.56 3.98948 40.56 3.84797V2.29137C40.56 2.10269 40.368 1.96118 40.224 1.96118H38.448C36.096 1.96118 34.224 3.89514 34.224 6.11212V9.08382H32.544C32.352 9.08382 32.208 9.2725 32.208 9.41401V10.9706C32.208 11.1593 32.4 11.3008 32.544 11.3008H34.224Z" fill="#6A6A6A"/>
<path fill-rule="evenodd" clip-rule="evenodd" d="M68.112 8.6594C69.984 8.6594 71.76 9.41411 73.008 10.7349C74.256 12.0556 74.928 13.8952 74.928 15.9235C74.928 20.9707 71.424 23.2349 68.064 23.2349C64.656 23.2349 61.2 21.0179 61.2 15.9235V2.19713C61.2 2.05562 61.344 1.86694 61.536 1.86694H63.12C63.264 1.86694 63.456 2.00845 63.456 2.19713V10.499C64.56 9.41411 66.336 8.6594 68.112 8.6594ZM63.408 15.9707C63.408 18.4707 64.656 21.1122 68.064 21.1122C71.472 21.1122 72.672 18.4707 72.72 15.9707C72.72 12.9518 70.848 10.8764 68.064 10.8764C65.28 10.8764 63.408 12.9047 63.408 15.9707Z" fill="#6A6A6A"/>
</svg>
