<svg width="26" height="20" viewBox="0 0 26 20" fill="none" xmlns="http://www.w3.org/2000/svg">
<path d="M6.84407 6.34045C7.09781 6.05299 7.088 5.61441 6.81313 5.33954C6.52733 5.05369 6.06387 5.05369 5.77802 5.33954L5.41878 5.69878V2.75699C5.41878 2.04398 5.99887 1.46389 6.71188 1.46389C7.42489 1.46389 8.00499 2.04398 8.00499 2.75699C8.00499 3.16122 8.3327 3.48894 8.73693 3.48894C9.14116 3.48894 9.46888 3.16122 9.46888 2.75699C9.46888 1.23679 8.23208 0 6.71188 0C5.19168 0 3.95489 1.23679 3.95489 2.75699V5.69878L3.59565 5.33954C3.30985 5.05369 2.84638 5.05369 2.56053 5.33954C2.28566 5.61441 2.2759 6.05295 2.52959 6.34045H6.84407Z" fill="#6A6A6A"/>
<path d="M24.836 7.80432H24.0052H2.1544H1.31569C0.911457 7.80432 0.58374 8.13204 0.58374 8.53627C0.58374 8.9405 0.911457 9.26821 1.31569 9.26821H1.59104C1.97019 10.7035 2.35002 12.1387 2.73068 13.5736C3.19254 15.3144 4.39971 16.6523 5.96608 17.2931L5.28947 18.1272C5.0348 18.4411 5.08291 18.9021 5.39682 19.1567C5.53242 19.2667 5.69545 19.3203 5.85746 19.3203C6.07045 19.3203 6.28169 19.2277 6.42632 19.0494L7.53639 17.6809C7.72426 17.6994 7.91452 17.71 8.10741 17.71H18.0462C18.2409 17.71 18.433 17.6992 18.6226 17.6804L19.7332 19.0494C19.8779 19.2277 20.0891 19.3203 20.3021 19.3203C20.4641 19.3203 20.6271 19.2668 20.7627 19.1568C21.0767 18.9021 21.1247 18.4412 20.87 18.1272L20.192 17.2914C21.7567 16.6497 22.9623 15.3121 23.4234 13.5719C23.8346 12.0198 24.2105 10.6059 24.5673 9.26826H24.8359C25.2402 9.26826 25.5679 8.94054 25.5679 8.53631C25.5679 8.13209 25.2402 7.80432 24.836 7.80432Z" fill="#6A6A6A"/>
</svg>
