<svg width="15" height="15" viewBox="0 0 15 15" fill="none" xmlns="http://www.w3.org/2000/svg">
<path d="M13.3334 0.333984H1.30212C0.770874 0.333984 0.333374 0.802734 0.333374 1.36523V13.334C0.333374 13.8965 0.770874 14.334 1.30212 14.334H13.3334C13.8646 14.334 14.3334 13.8965 14.3334 13.334V1.36523C14.3334 0.802734 13.8646 0.333984 13.3334 0.333984ZM4.55212 12.334H2.48962V5.67773H4.55212V12.334ZM3.52087 4.74023C2.83337 4.74023 2.30212 4.20898 2.30212 3.55273C2.30212 2.89648 2.83337 2.33398 3.52087 2.33398C4.17712 2.33398 4.70837 2.89648 4.70837 3.55273C4.70837 4.20898 4.17712 4.74023 3.52087 4.74023ZM12.3334 12.334H10.2396V9.08398C10.2396 8.33398 10.2396 7.33398 9.17712 7.33398C8.08337 7.33398 7.92712 8.17773 7.92712 9.05273V12.334H5.86462V5.67773H7.83337V6.58398H7.86462C8.14587 6.05273 8.83337 5.49023 9.83337 5.49023C11.9271 5.49023 12.3334 6.89648 12.3334 8.67773V12.334Z" fill="#6A6A6A"/>
</svg>
