<svg width="17" height="14" viewBox="0 0 17 14" fill="none" xmlns="http://www.w3.org/2000/svg">
<path d="M14.677 4.08398C15.302 3.61523 15.8645 3.05273 16.302 2.39648C15.7395 2.64648 15.0833 2.83398 14.427 2.89648C15.1145 2.49023 15.6145 1.86523 15.8645 1.08398C15.2395 1.45898 14.5208 1.74023 13.802 1.89648C13.177 1.24023 12.3333 0.865234 11.3958 0.865234C9.58325 0.865234 8.1145 2.33398 8.1145 4.14648C8.1145 4.39648 8.14575 4.64648 8.20825 4.89648C5.4895 4.74023 3.052 3.42773 1.427 1.45898C1.14575 1.92773 0.989502 2.49023 0.989502 3.11523C0.989502 4.24023 1.552 5.24023 2.45825 5.83398C1.927 5.80273 1.39575 5.67773 0.958252 5.42773V5.45898C0.958252 7.05273 2.08325 8.36523 3.58325 8.67773C3.33325 8.74023 3.02075 8.80273 2.7395 8.80273C2.52075 8.80273 2.33325 8.77148 2.1145 8.74023C2.52075 10.0527 3.7395 10.9902 5.177 11.0215C4.052 11.8965 2.64575 12.4277 1.1145 12.4277C0.833252 12.4277 0.583252 12.3965 0.333252 12.3652C1.77075 13.3027 3.4895 13.834 5.3645 13.834C11.3958 13.834 14.677 8.86523 14.677 4.52148C14.677 4.36523 14.677 4.24023 14.677 4.08398Z" fill="#6A6A6A"/>
</svg>
