<svg width="15" height="15" viewBox="0 0 15 15" fill="none" xmlns="http://www.w3.org/2000/svg">
<path d="M7.5 0.96875C11.2461 0.96875 14.2812 4.00391 14.2812 7.75C14.2812 11.4961 11.2461 14.5312 7.5 14.5312C3.75391 14.5312 0.71875 11.4961 0.71875 7.75C0.71875 4.00391 3.75391 0.96875 7.5 0.96875ZM9.22266 4.49609C8.89453 5.01562 8.8125 5.50781 8.8125 6C8.8125 6.51953 8.89453 7.01172 9.22266 7.53125C9.44141 7.83203 9.90625 7.83203 10.125 7.53125C10.4531 7.01172 10.5352 6.51953 10.5625 6C10.5352 5.50781 10.4531 5.01562 10.125 4.49609C9.90625 4.16797 9.44141 4.19531 9.22266 4.49609ZM4.84766 4.49609C4.51953 5.01562 4.4375 5.50781 4.4375 6C4.4375 6.51953 4.51953 7.01172 4.84766 7.53125C5.06641 7.83203 5.53125 7.83203 5.75 7.53125C6.07812 7.01172 6.16016 6.51953 6.1875 6C6.16016 5.50781 6.07812 5.01562 5.75 4.49609C5.53125 4.16797 5.06641 4.19531 4.84766 4.49609ZM7.5 12.5625C9.14062 12.5625 11.1641 11.5234 11.4102 10.0195C11.4648 9.69141 11.1641 9.44531 10.8633 9.52734C10.0156 9.80078 8.8125 9.9375 7.5 9.9375C6.1875 9.9375 4.95703 9.80078 4.10938 9.52734C3.80859 9.44531 3.50781 9.69141 3.5625 10.0195C3.80859 11.5234 5.83203 12.5625 7.5 12.5625Z" fill="white"/>
</svg>
