<svg width="19" height="15" viewBox="0 0 19 15" fill="none" xmlns="http://www.w3.org/2000/svg">
<path d="M6.875 7.75C4.93359 7.75 3.375 6.19141 3.375 4.25C3.375 2.33594 4.93359 0.75 6.875 0.75C8.78906 0.75 10.375 2.33594 10.375 4.25C10.375 6.19141 8.78906 7.75 6.875 7.75ZM9.30859 8.625C11.332 8.625 13 10.293 13 12.3164V13.4375C13 14.1758 12.3984 14.75 11.6875 14.75H2.0625C1.32422 14.75 0.75 14.1758 0.75 13.4375V12.3164C0.75 10.293 2.39062 8.625 4.41406 8.625H4.87891C5.48047 8.92578 6.16406 9.0625 6.875 9.0625C7.58594 9.0625 8.24219 8.92578 8.84375 8.625H9.30859ZM18.1406 5.125C18.2773 5.26172 18.2773 5.45312 18.1406 5.58984L14.2852 9.41797C14.1484 9.55469 13.957 9.55469 13.8203 9.41797L11.5781 7.17578C11.4688 7.03906 11.4688 6.82031 11.5781 6.71094L12.3438 5.94531C12.4805 5.80859 12.6992 5.80859 12.8086 5.94531L14.0664 7.20312L16.9375 4.35938C17.0469 4.22266 17.2656 4.22266 17.375 4.35938L18.1406 5.125Z" fill="white"/>
</svg>
