<svg width="19" height="13" viewBox="0 0 19 13" fill="none" xmlns="http://www.w3.org/2000/svg">
<path d="M6 6.75C4.30469 6.75 2.9375 5.38281 2.9375 3.6875C2.9375 2.01953 4.30469 0.625 6 0.625C7.66797 0.625 9.0625 2.01953 9.0625 3.6875C9.0625 5.38281 7.66797 6.75 6 6.75ZM8.07812 7.625C9.82812 7.625 11.25 9.04688 11.25 10.7969V11.5625C11.25 12.3008 10.6484 12.875 9.9375 12.875H2.0625C1.32422 12.875 0.75 12.3008 0.75 11.5625V10.7969C0.75 9.04688 2.14453 7.625 3.89453 7.625H4.11328C4.6875 7.89844 5.31641 8.0625 6 8.0625C6.65625 8.0625 7.28516 7.89844 7.85938 7.625H8.07812ZM13.875 6.75C12.4258 6.75 11.25 5.57422 11.25 4.125C11.25 2.67578 12.4258 1.5 13.875 1.5C15.3242 1.5 16.5 2.67578 16.5 4.125C16.5 5.57422 15.3242 6.75 13.875 6.75ZM15.1875 7.625C16.8555 7.625 18.25 9.01953 18.25 10.6875C18.25 11.4258 17.6484 12 16.9375 12H12.0977C12.0977 11.9453 12.125 11.8906 12.125 11.8359V10.7969C12.125 9.73047 11.6875 8.77344 11.0312 8.0625C11.4688 7.78906 11.9883 7.625 12.5625 7.625H12.6445C13.0273 7.76172 13.4375 7.84375 13.875 7.84375C14.2852 7.84375 14.6953 7.76172 15.0781 7.625H15.1875Z" fill="white"/>
</svg>
