<svg width="19" height="13" viewBox="0 0 19 13" fill="none" xmlns="http://www.w3.org/2000/svg">
<path d="M17.7305 1.25391C18.0312 1.39062 18.25 1.71875 18.25 2.04688V10.7422C18.25 11.2344 17.8125 11.5898 17.3477 11.5898C17.2656 11.5898 17.1562 11.5898 17.0742 11.5625C16.2266 11.2891 15.3789 11.1797 14.5312 11.1797C11.168 11.1797 7.80469 12.875 4.44141 12.875C3.375 12.875 2.30859 12.7109 1.24219 12.2734C0.941406 12.1367 0.75 11.8086 0.75 11.4805V2.78516C0.75 2.29297 1.16016 1.91016 1.625 1.91016C1.70703 1.91016 1.81641 1.9375 1.89844 1.96484C2.74609 2.23828 3.59375 2.34766 4.44141 2.34766C7.80469 2.34766 11.168 0.625 14.5312 0.625C15.5977 0.625 16.6641 0.816406 17.7305 1.25391ZM9.5 9.375C10.7031 9.375 11.6875 8.22656 11.6875 6.75C11.6875 5.30078 10.7031 4.125 9.5 4.125C8.26953 4.125 7.3125 5.30078 7.3125 6.75C7.3125 8.22656 8.26953 9.375 9.5 9.375Z" fill="white"/>
</svg>
