<svg width="15" height="15" viewBox="0 0 15 15" fill="none" xmlns="http://www.w3.org/2000/svg">
<path d="M7.33325 3.74023C5.33325 3.74023 3.7395 5.36523 3.7395 7.33398C3.7395 9.33398 5.33325 10.9277 7.33325 10.9277C9.302 10.9277 10.927 9.33398 10.927 7.33398C10.927 5.36523 9.302 3.74023 7.33325 3.74023ZM7.33325 9.67773C6.052 9.67773 4.9895 8.64648 4.9895 7.33398C4.9895 6.05273 6.02075 5.02148 7.33325 5.02148C8.6145 5.02148 9.64575 6.05273 9.64575 7.33398C9.64575 8.64648 8.6145 9.67773 7.33325 9.67773ZM11.8958 3.61523C11.8958 3.14648 11.5208 2.77148 11.052 2.77148C10.5833 2.77148 10.2083 3.14648 10.2083 3.61523C10.2083 4.08398 10.5833 4.45898 11.052 4.45898C11.5208 4.45898 11.8958 4.08398 11.8958 3.61523ZM14.2708 4.45898C14.2083 3.33398 13.9583 2.33398 13.1458 1.52148C12.3333 0.708984 11.3333 0.458984 10.2083 0.396484C9.052 0.333984 5.58325 0.333984 4.427 0.396484C3.302 0.458984 2.33325 0.708984 1.4895 1.52148C0.677002 2.33398 0.427002 3.33398 0.364502 4.45898C0.302002 5.61523 0.302002 9.08398 0.364502 10.2402C0.427002 11.3652 0.677002 12.334 1.4895 13.1777C2.33325 13.9902 3.302 14.2402 4.427 14.3027C5.58325 14.3652 9.052 14.3652 10.2083 14.3027C11.3333 14.2402 12.3333 13.9902 13.1458 13.1777C13.9583 12.334 14.2083 11.3652 14.2708 10.2402C14.3333 9.08398 14.3333 5.61523 14.2708 4.45898ZM12.7708 11.459C12.552 12.084 12.052 12.5527 11.4583 12.8027C10.5208 13.1777 8.33325 13.084 7.33325 13.084C6.302 13.084 4.1145 13.1777 3.20825 12.8027C2.58325 12.5527 2.1145 12.084 1.8645 11.459C1.4895 10.5527 1.58325 8.36523 1.58325 7.33398C1.58325 6.33398 1.4895 4.14648 1.8645 3.20898C2.1145 2.61523 2.58325 2.14648 3.20825 1.89648C4.1145 1.52148 6.302 1.61523 7.33325 1.61523C8.33325 1.61523 10.5208 1.52148 11.4583 1.89648C12.052 2.11523 12.5208 2.61523 12.7708 3.20898C13.1458 4.14648 13.052 6.33398 13.052 7.33398C13.052 8.36523 13.1458 10.5527 12.7708 11.459Z" fill="#6A6A6A"/>
</svg>
