<svg width="67" height="64" viewBox="0 0 67 64" fill="none" xmlns="http://www.w3.org/2000/svg">
<path d="M11.5253 51.347L7.37659 48.9577V28.0242H11.5253V51.347ZM55.4747 28.0242H59.6234V48.9577L55.4747 51.347V28.0242ZM35.5744 32.1548V62.8102L33.5 64L31.4256 62.8102V32.1548H23.5547V58.2733L19.406 55.8839V28.0242C28.7988 28.0242 38.2012 28.0242 47.594 28.0242V55.8839L43.4453 58.2733V32.1548H35.5744ZM37.9201 14.2975V17.8186H34.3918V14.2975H37.9201ZM37.9201 23.11H34.3918V19.5889H37.9201V23.11ZM29.0896 23.11V19.5889H32.6179V23.11H29.0896ZM29.0896 14.2975H32.6179V17.8186H29.0896V14.2975ZM0 19.3083L33.5 0L67 19.3083V24.0774L33.5 4.76904L0 24.0677V19.3083Z" fill="#425CEC"/>
</svg>
