<svg width="96" height="26" viewBox="0 0 96 26" fill="none" xmlns="http://www.w3.org/2000/svg">
<path fill-rule="evenodd" clip-rule="evenodd" d="M10.7598 24.4243H10.7598L10.7597 24.4243L10.7595 24.4243C10.2071 24.4809 9.64622 24.5384 9.07194 24.6091L4.46394 11.2782V25.1764C3.02394 25.3182 1.72794 25.5073 0.335938 25.7437V0.263672H4.17594L9.40794 14.7291V0.263672H13.4879V24.0891C12.5864 24.2371 11.6849 24.3295 10.7598 24.4243ZM24.2916 9.57471L24.2918 9.57471L24.2919 9.57471C25.2456 9.55165 26.1771 9.52913 26.8799 9.52913V13.5C25.1039 13.5 22.9919 13.5 21.4559 13.5946V19.5037C22.2038 19.4586 22.9566 19.4087 23.7127 19.3586L23.7128 19.3586L23.7129 19.3586L23.713 19.3586H23.713H23.713H23.713H23.7131H23.7131H23.7131H23.7131C25.3346 19.2511 26.9713 19.1427 28.6079 19.0782V22.9073L17.4239 23.7582V0.263672H28.6079V4.23458H21.4559V9.62367C22.2667 9.62367 23.2913 9.5989 24.2915 9.57472L24.2915 9.57471H24.2916H24.2916ZM39.4079 4.28185H43.5839C43.5839 4.28185 43.5839 0.263672 43.6319 0.263672H31.1999V4.28185H35.3759V22.6237C36.6719 22.5764 38.0639 22.5764 39.4079 22.5764V4.28185ZM50.1599 9.34004H55.6799V13.3109H50.1599V22.34H46.1759V0.263672H57.4559V4.23458H50.1599V9.34004ZM68.2177 19.0319C66.8296 18.9515 65.4308 18.8706 64.0319 18.8419V0.263672H59.9999V22.5764C63.6959 22.6709 67.2959 22.86 70.8959 23.0964V19.1728C70.0096 19.1356 69.1159 19.0839 68.2177 19.0319ZM75.6663 23.4672L75.6664 23.4672C76.5313 23.5187 77.4096 23.571 78.2879 23.6637V0.263672H74.3039V23.38C74.753 23.4128 75.2077 23.4399 75.6663 23.4672ZM90.8159 12.3655L95.9519 0.263672H91.4879L88.6559 6.92913L86.0159 0.263672H81.6959L86.3999 12.2237L81.2159 23.8528C81.7919 23.9284 82.3679 23.9889 82.9439 24.0494C83.8079 24.1402 84.6719 24.2309 85.5359 24.3728L88.5119 17.6128L91.3919 24.9873C91.9299 25.0701 92.4619 25.1587 92.9921 25.2469C93.976 25.4107 94.9538 25.5735 95.9519 25.6964L90.8159 12.3655Z" fill="#6A6A6A"/>
</svg>
