<svg width="110" height="33" viewBox="0 0 110 33" fill="none" xmlns="http://www.w3.org/2000/svg">
<path d="M19.7015 3.27444C19.2637 1.83996 17.7314 1.06755 16.3085 1.50893C14.8856 1.95031 14.1194 3.49513 14.5572 4.92962L21.5622 26.6675C22.0548 27.9917 23.4776 28.7641 24.8458 28.3779C26.2687 27.9365 27.1443 26.4469 26.7065 25.0124C26.7065 24.9572 19.7015 3.27444 19.7015 3.27444Z" fill="#6A6A6A"/>
<path d="M8.8657 6.86063C8.42789 5.42614 6.89556 4.65373 5.47267 5.09511C4.04978 5.53649 3.28361 7.08132 3.72143 8.5158L10.7264 30.2537C11.2189 31.5779 12.6418 32.3503 14.01 31.9641C15.4329 31.5227 16.3085 30.033 15.8707 28.5986C15.8707 28.5434 8.8657 6.86063 8.8657 6.86063Z" fill="#6A6A6A"/>
<path d="M28.5672 21.3157C29.9901 20.8744 30.7562 19.3295 30.3184 17.895C29.8806 16.4606 28.3483 15.6882 26.9254 16.1295L5.30846 23.1364C3.99503 23.633 3.22886 25.0675 3.61194 26.4468C4.04975 27.8813 5.52736 28.764 6.95025 28.3226C7.0597 28.3226 28.5672 21.3157 28.5672 21.3157Z" fill="#6A6A6A"/>
<path d="M9.79613 27.44C11.219 26.9986 13.025 26.3917 14.9404 25.7297C14.5026 24.2952 13.9006 22.4745 13.2439 20.5435L8.09961 22.2538L9.79613 27.44Z" fill="#6A6A6A"/>
<path d="M20.6866 23.8538C22.6568 23.1918 24.4627 22.64 25.8309 22.1435C25.3931 20.709 24.7911 18.8883 24.1344 16.9573L18.9901 18.6676L20.6866 23.8538Z" fill="#6A6A6A"/>
<path d="M25.01 10.3365C26.4329 9.89511 27.1991 8.35028 26.7612 6.9158C26.3234 5.48132 24.7911 4.7089 23.3682 5.15028L1.80602 12.2124C0.492585 12.7089 -0.273584 14.1434 0.109501 15.5227C0.547312 17.0124 2.02492 17.8951 3.44781 17.3986C3.50254 17.3986 25.01 10.3365 25.01 10.3365Z" fill="#6A6A6A"/>
<path d="M6.29356 16.4608C7.71645 16.0194 9.52242 15.4125 11.4378 14.7504C10.7811 12.7642 10.2339 10.9435 9.74132 9.56421L4.59705 11.2746L6.29356 16.4608Z" fill="#6A6A6A"/>
<path d="M17.1294 12.9298C19.0995 12.2677 20.9055 11.716 22.2737 11.2194C21.6169 9.2332 21.0697 7.41251 20.5771 6.0332L15.4329 7.74355L17.1294 12.9298Z" fill="#6A6A6A"/>
<path d="M50.4031 9.01236C51.3334 9.45374 51.4429 9.7296 50.6767 11.1641C49.9105 12.6537 49.7464 12.7089 48.7613 12.3227C47.5573 11.8262 46.0797 11.4399 45.0946 11.4399C43.5075 11.4399 42.4677 11.9917 42.4677 12.8744C42.4677 15.7434 51.607 14.1986 51.607 20.3779C51.607 23.4675 48.9802 25.5089 45.0399 25.5089C42.9603 25.5089 40.3881 24.7917 38.6369 23.9089C37.7613 23.4675 37.7066 23.1917 38.4727 21.702C39.1294 20.4331 39.3483 20.2675 40.2787 20.6537C41.811 21.3158 43.6717 21.8124 44.9852 21.8124C46.4628 21.8124 47.3931 21.2055 47.3931 20.3227C47.3931 17.5089 38.0896 18.8331 38.0896 12.8744C38.0896 9.7296 40.7165 7.57788 44.6021 7.57788C46.4628 7.7434 48.816 8.29512 50.4031 9.01236Z" fill="#6A6A6A"/>
<path d="M57.791 1.72964V24.6814C57.791 25.0124 57.408 25.3986 56.9154 25.3986H54.5075C53.9602 25.3986 53.6318 25.0124 53.6318 24.6814V1.72964C53.6318 0.571016 53.9602 0.515844 55.7114 0.515844C57.6816 0.460671 57.791 0.626189 57.791 1.72964Z" fill="#6A6A6A"/>
<path fill-rule="evenodd" clip-rule="evenodd" d="M74.7563 24.4606V14.5848C74.7563 10.2813 71.8558 7.74341 67.2587 7.74341C65.1791 7.74341 62.8806 8.40548 61.2388 9.50893C60.3632 10.0606 60.3632 10.3365 61.2388 11.7158C62.1692 13.0951 62.3334 13.1503 63.209 12.6538C64.3035 11.9917 65.6717 11.5503 66.8209 11.5503C69.2289 11.5503 70.6518 12.6538 70.6518 14.4744V15.6331C69.5025 15.1365 68.0796 14.8606 66.5473 14.8606C62.4428 14.8606 59.7612 17.0675 59.7612 20.3779C59.7612 23.4675 62.1692 25.5641 65.7264 25.5641C67.5871 25.5641 69.4478 24.7917 70.7065 23.3572L70.6518 24.4055C70.5971 24.9572 70.9801 25.3434 71.5274 25.3434H73.8806C74.3732 25.3434 74.7563 25.0124 74.7563 24.4606ZM66.2189 22.2538C64.7413 22.2538 63.7563 21.4813 63.7563 20.3227C63.7563 18.8882 65.2339 17.7848 67.4229 17.7848C68.4627 17.7848 69.6667 17.9503 70.5971 18.3365V19.8813C69.6667 21.371 68.0249 22.2538 66.2189 22.2538Z" fill="#6A6A6A"/>
<path d="M91.01 9.06769C91.8856 9.56424 91.8856 9.8401 90.9553 11.3298C90.0797 12.7091 89.9155 12.8194 88.9304 12.3229C88.219 11.9367 87.015 11.6056 86.0846 11.6056C83.0747 11.6056 81.1045 13.5918 81.1045 16.6263C81.1045 19.7711 83.0747 21.8677 86.0846 21.8677C87.1244 21.8677 88.4379 21.4815 89.2588 20.9849C90.1344 20.4884 90.2986 20.4884 91.2289 21.8677C92.0498 23.1367 92.0498 23.4125 91.2837 23.9642C89.9702 24.9022 87.8359 25.6194 85.9752 25.6194C80.4478 25.6194 76.7264 22.0332 76.7264 16.6815C76.7264 11.3298 80.4478 7.79872 86.0299 7.79872C87.7812 7.74355 89.7513 8.29527 91.01 9.06769Z" fill="#6A6A6A"/>
<path d="M109.124 23.1917C109.836 24.0745 109.562 24.4055 107.811 25.0124C106.06 25.6745 105.786 25.6193 105.184 24.7917L100.204 18.1159L97.9602 20.2676V24.6262C97.9602 24.9572 97.5771 25.3435 97.0846 25.3435H94.6766C94.1294 25.3435 93.801 24.9572 93.801 24.6262V1.72966C93.801 0.571042 94.1294 0.515869 95.8806 0.515869C97.9055 0.515869 97.9602 0.681386 97.9602 1.72966V14.7504L104.746 8.18483C105.512 7.46759 105.896 7.52277 107.264 8.40552C108.741 9.34346 108.851 9.61932 108.139 10.3366L103.105 15.3021L109.124 23.1917Z" fill="#6A6A6A"/>
</svg>
