<svg width="96" height="21" viewBox="0 0 96 21" fill="none" xmlns="http://www.w3.org/2000/svg">
<path d="M15.0448 0.806976V12.0884C15.0448 15.8488 13.4209 17.4116 9.6 17.4116C5.77911 17.4116 4.15522 15.8488 4.15522 12.0884V0.318604H0.477612C0.143284 0.318604 0 0.465115 0 0.806976V12.2349C0 18.5349 3.91642 20.7326 9.6 20.7326C15.2836 20.7326 19.2 18.5349 19.2 12.2349V0.318604H15.5224C15.2358 0.318604 15.0448 0.465115 15.0448 0.806976Z" fill="#6A6A6A"/>
<path d="M68.3939 3.5907C68.6805 3.5907 68.8238 3.49302 68.9193 3.24884L69.9701 0.56279C70.0178 0.416278 69.9701 0.318604 69.8268 0.318604H55.0208C53.6357 0.318604 53.1104 0.758138 53.1104 1.73488V19.2186C53.1104 20.0488 53.4924 20.3907 54.5909 20.3907H68.3939C68.6805 20.3907 68.8238 20.293 68.9193 20.0488L69.9701 17.3628C70.0178 17.2163 69.9701 17.1186 69.8268 17.1186H57.1701V13.5535C57.1701 12.3326 57.8387 11.7465 59.6059 11.7465H65.0984C65.385 11.7465 65.5283 11.6488 65.6238 11.4046L66.6268 8.81628C66.6745 8.66977 66.6268 8.57209 66.4835 8.57209H57.1223V3.5907H68.3939Z" fill="#6A6A6A"/>
<path fill-rule="evenodd" clip-rule="evenodd" d="M44.6089 5.39767C44.6089 7.30232 43.9403 8.91395 42.3164 9.79302C44.5134 10.4279 45.5164 12.4302 45.4686 14.8233C45.4686 18.8279 42.6985 20.3907 38.8298 20.3907H28.5612C27.4627 20.3907 27.0806 20.0488 27.0806 19.2186V1.73488C27.0806 0.758138 27.6059 0.318604 28.991 0.318604H37.397C41.0746 0.318604 44.6089 0.953487 44.6089 5.39767ZM31.188 3.54186H37.6836C39.8328 3.54186 40.4537 4.37209 40.4537 6.13023C40.4537 7.83953 39.8328 8.7186 37.6836 8.7186H31.188V3.54186ZM38.4477 17.1674H31.188V13.5047C31.188 12.2837 31.8567 11.6977 33.6238 11.6977H38.4477C40.7403 11.6977 41.4089 12.6256 41.4089 14.4326C41.4089 16.2884 40.7403 17.1674 38.4477 17.1674Z" fill="#6A6A6A"/>
<path fill-rule="evenodd" clip-rule="evenodd" d="M91.2717 12.3326L95.6658 20.0488C95.7613 20.1465 95.7613 20.3907 95.427 20.3907H91.7016C91.4262 20.3907 91.3272 20.2554 91.1927 20.0714C91.1873 20.0639 91.1818 20.0564 91.1762 20.0488L87.212 12.7233H83.5822C81.815 12.7233 81.1464 13.3093 81.1464 14.5302V20.3907H77.5643C77.23 20.3907 77.0867 20.2442 77.0867 19.9023V1.73488C77.0867 0.758138 77.612 0.318604 78.9971 0.318604H87.4031C92.2747 0.318604 95.2359 1.63721 95.2359 6.52093C95.2359 10.2814 93.4688 11.7465 91.2717 12.3326ZM81.1464 9.64651H87.9762C90.5553 9.64651 91.0807 8.62093 91.0807 6.56977C91.0807 4.56744 90.5076 3.54186 87.9762 3.54186H81.1464V9.64651Z" fill="#6A6A6A"/>
</svg>
